<svg xmlns="http://www.w3.org/2000/svg" viewBox="0 0 512 512" role="img" aria-label="Rail Nation">
  <defs><linearGradient id="g" x1="0" y1="0" x2="1" y2="1"><stop stop-color="#0f766e"/><stop offset="1" stop-color="#2dd4bf"/></linearGradient></defs>
  <rect width="512" height="512" rx="112" fill="url(#g)"/>
  <path d="M146 112h220l34 106v152c0 17-13 30-30 30h-20l-24-39H186l-24 39h-20c-17 0-30-13-30-30V218l34-106Zm39 52-14 48h170l-14-48H185Zm-21 101v60h184v-60H164Zm35 93a23 23 0 1 0 0-46 23 23 0 0 0 0 46Zm114 0a23 23 0 1 0 0-46 23 23 0 0 0 0 46Z" fill="#fff"/>
  <path d="M96 428h320" stroke="#ccfbf1" stroke-width="18" stroke-linecap="round"/>
</svg>
