<svg xmlns="http://www.w3.org/2000/svg" width="1200" height="340" viewBox="0 0 1200 340" preserveAspectRatio="xMidYMax meet" fill="#fff">
  <defs><linearGradient id="fade" x1="0" y1="340" x2="0" y2="0" gradientUnits="userSpaceOnUse"><stop offset="0" stop-color="#fff"/><stop offset="0.5" stop-color="#fff"/><stop offset="0.94" stop-color="#000"/></linearGradient><mask id="fade-top" maskUnits="userSpaceOnUse" x="0" y="0" width="1200" height="340"><rect width="1200" height="340" fill="url(#fade)"/></mask></defs>
  <g mask="url(#fade-top)">
  <!-- Berlin TV Tower / Fernsehturm (left) -->
  <g>
    <rect x="258" y="150" width="10" height="150"/>
    <circle cx="263" cy="150" r="26"/>
    <rect x="259" y="96" width="8" height="40"/>
    <rect x="261" y="60" width="4" height="38"/>
  </g>
  <!-- Brandenburg Gate (center hero) -->
  <g>
    <rect x="500" y="150" width="200" height="150"/>
    <rect x="512" y="162" width="18" height="138"/>
    <rect x="546" y="162" width="18" height="138"/>
    <rect x="580" y="162" width="18" height="138"/>
    <rect x="614" y="162" width="18" height="138"/>
    <rect x="648" y="162" width="18" height="138"/>
    <rect x="494" y="134" width="212" height="18"/>
    <rect x="504" y="120" width="192" height="14"/>
    <!-- quadriga -->
    <rect x="576" y="92" width="48" height="10"/>
    <path d="M576 92 q6 -18 24 -18 q18 0 24 18" fill="none" stroke="#fff" stroke-width="5"/>
    <rect x="595" y="70" width="4" height="14"/>
    <rect x="604" y="70" width="4" height="14"/>
  </g>
  <!-- Cologne Cathedral twin spires (right) -->
  <g>
    <path d="M880 300 V150 h28 V150 L894 96 z"/>
    <path d="M894 96 L880 150 h28 z"/>
    <path d="M930 300 V150 h28 L944 96 z"/>
    <path d="M944 96 L930 150 h28 z"/>
    <rect x="908" y="176" width="22" height="124"/>
  </g>
  <rect x="240" y="298" width="740" height="4"/>
  </g>
</svg>
