<svg xmlns="http://www.w3.org/2000/svg" width="1200" height="340" viewBox="0 0 1200 340" preserveAspectRatio="xMidYMax meet" fill="#fff">
  <defs><linearGradient id="fade" x1="0" y1="340" x2="0" y2="0" gradientUnits="userSpaceOnUse"><stop offset="0" stop-color="#fff"/><stop offset="0.5" stop-color="#fff"/><stop offset="0.94" stop-color="#000"/></linearGradient><mask id="fade-top" maskUnits="userSpaceOnUse" x="0" y="0" width="1200" height="340"><rect width="1200" height="340" fill="url(#fade)"/></mask></defs>
  <g mask="url(#fade-top)">
  <!-- Alp ranges -->
  <path d="M120 300 L300 150 L430 260 L500 300 Z" opacity="0.85"/>
  <path d="M760 300 L900 170 L1010 260 L1120 190 L1200 300 Z" opacity="0.85"/>
  <!-- Matterhorn (center hero) -->
  <path d="M470 300 L600 60 L740 300 Z"/>
  <!-- Chalet -->
  <g>
    <rect x="556" y="252" width="88" height="48"/>
    <path d="M548 252 h104 L600 214 z"/>
    <rect x="580" y="268" width="18" height="32"/>
    <rect x="612" y="268" width="18" height="20"/>
  </g>
  <!-- Chapel Bridge tower (Lucerne, right) -->
  <g>
    <rect x="900" y="196" width="30" height="104"/>
    <path d="M896 196 h38 l-19 -26 z"/>
    <rect x="912" y="158" width="6" height="14"/>
  </g>
  <!-- Church spire (left) -->
  <g>
    <rect x="286" y="220" width="24" height="80"/>
    <path d="M282 220 h32 L298 178 z"/>
    <rect x="295" y="164" width="6" height="16"/>
  </g>
  <rect x="0" y="298" width="1200" height="4"/>
  </g>
</svg>
