<svg xmlns="http://www.w3.org/2000/svg" width="1200" height="340" viewBox="0 0 1200 340" preserveAspectRatio="xMidYMax meet" fill="#fff">
  <defs><linearGradient id="fade" x1="0" y1="340" x2="0" y2="0" gradientUnits="userSpaceOnUse"><stop offset="0" stop-color="#fff"/><stop offset="0.5" stop-color="#fff"/><stop offset="0.94" stop-color="#000"/></linearGradient><mask id="fade-top" maskUnits="userSpaceOnUse" x="0" y="0" width="1200" height="340"><rect width="1200" height="340" fill="url(#fade)"/></mask></defs>
  <g mask="url(#fade-top)">
  <!-- Boston skyline (left) -->
  <rect x="150" y="150" width="34" height="150"/>
  <path d="M150 150 h34 v-40 h-34 z"/>
  <rect x="158" y="96" width="18" height="16"/>
  <rect x="200" y="196" width="26" height="104"/>
  <rect x="240" y="176" width="30" height="124"/>
  <path d="M240 176 h30 l-15 -22 z"/>
  <!-- Zakim Bunker Hill Bridge (center hero) -->
  <g fill="none" stroke="#fff" stroke-width="6">
    <path d="M560 300 V150 L560 150 L546 120 M560 150 L574 120"/>
    <path d="M700 300 V150 M700 150 L686 120 M700 150 L714 120"/>
    <path d="M420 262 L555 158 M690 158 L840 262"/>
    <path d="M480 240 L560 176 M700 176 L780 240"/>
    <path d="M520 218 L560 196 M700 196 L740 218"/>
  </g>
  <rect x="420" y="260" width="420" height="10" fill="#fff"/>
  <!-- Custom House Tower with clock (right) -->
  <g>
    <rect x="900" y="130" width="40" height="170"/>
    <rect x="906" y="96" width="28" height="40"/>
    <circle cx="920" cy="116" r="9"/>
    <path d="M906 96 h28 l-14 -22 z"/>
    <rect x="917" y="60" width="6" height="16"/>
  </g>
  <rect x="960" y="200" width="30" height="100"/>
  <!-- sailboat -->
  <path d="M300 296 q30 12 92 0 l-8 10 h-76 z"/>
  <path d="M346 292 V210 l40 78 z"/>
  <path d="M342 292 V214 l-32 74 z"/>
  <rect x="120" y="298" width="880" height="4"/>
  </g>
</svg>
